<svg width="1956" height="1956" viewBox="0 0 1956 1956" fill="none" xmlns="http://www.w3.org/2000/svg">
<path fill-rule="evenodd" clip-rule="evenodd" d="M128.447 4.506C126.986 14.249 130.605 28.991 136.81 38.572C146.599 53.689 165.091 63.965 182.5 63.965C199.909 63.965 218.401 53.689 228.19 38.572C234.395 28.991 238.014 14.249 236.553 4.506L235.877 0H182.5H129.123L128.447 4.506ZM844.539 3.75C847.147 19.286 856.34 31.989 869.398 38.099C897.482 51.241 928.259 34.739 933.461 3.75L934.091 0H889H843.909L844.539 3.75ZM552.108 22.082C529.394 26.542 513.041 49.926 516.794 72.578C520.045 92.195 534.805 106.955 554.422 110.206C583.338 114.997 609.997 88.338 605.206 59.422C600.983 33.942 577.131 17.168 552.108 22.082ZM760 31.539C744.094 35.969 733.553 49.903 733.553 66.5C733.553 83.773 744.394 97.462 761.398 101.658C773.443 104.631 786.061 101.024 795.043 92.043C804.024 83.061 807.631 70.443 804.658 58.398C799.674 38.2 779.548 26.096 760 31.539ZM326.211 34.071C321.446 35.529 315.326 42.076 313.95 47.187C311.556 56.077 315.113 65.421 322.683 70.127C328.355 73.653 338.121 73.509 343.7 69.817C349.942 65.686 352.5 60.798 352.5 53C352.5 45.302 349.947 40.317 343.985 36.372C339.696 33.533 331.454 32.466 326.211 34.071ZM91 55.53C73.358 60.421 61.771 75.383 61.595 93.5C61.426 110.758 70.887 124.902 86.748 131.104C94.781 134.245 107.219 134.245 115.252 131.104C139.072 121.789 148.027 92.99 133.788 71.493C125.043 58.291 106.284 51.292 91 55.53ZM422.929 55.305C412.554 58.244 404.77 64.951 400.129 74.954C398.053 79.43 397.551 82.047 397.528 88.521C397.503 95.586 397.889 97.331 400.76 103.163C404.562 110.886 409.997 116.18 417.88 119.837C425.879 123.547 437.121 123.547 445.12 119.837C453.003 116.18 458.438 110.886 462.24 103.163C465.111 97.331 465.497 95.586 465.472 88.521C465.439 79.151 462.691 71.985 456.507 65.14C448.801 56.61 433.819 52.222 422.929 55.305ZM659.703 56.381C650.347 59.869 643.336 67.352 640.864 76.485C638.39 85.629 642.336 98.74 649.337 104.631C655.599 109.9 659.989 111.465 668.5 111.465C674.803 111.465 677.373 111.002 680.616 109.28C686.922 105.934 690.313 102.669 693.546 96.833C696.127 92.173 696.5 90.491 696.5 83.5C696.5 76.509 696.127 74.827 693.546 70.167C688.418 60.909 680.51 55.927 670 55.333C665.972 55.105 662.056 55.504 659.703 56.381ZM930.803 65.344C913.54 70.194 904.599 89.001 911.808 105.3C918.448 120.309 936.483 126.891 951.217 119.682C968.767 111.096 973.108 88.582 960.076 73.739C953.552 66.308 940.597 62.593 930.803 65.344ZM273.108 78.082C250.394 82.542 234.041 105.926 237.794 128.578C241.045 148.195 255.805 162.955 275.422 166.206C304.338 170.997 330.997 144.338 326.206 115.422C321.983 89.942 298.131 73.168 273.108 78.082ZM846.263 98.514C826.507 102.806 810.129 120.4 806.851 140.852C802.46 168.253 822.257 194.915 850.148 199.162C877.574 203.338 903.927 183.665 908.162 155.852C912.129 129.8 894.163 103.956 868.27 98.469C860.028 96.723 854.456 96.734 846.263 98.514ZM985.5 117.896C971.969 124.16 968.963 141.2 979.624 151.197C990.019 160.944 1006.02 157.645 1012.1 144.5C1019.66 128.188 1001.81 110.344 985.5 117.896ZM516.086 123.717C507.264 126.833 500 137.347 500 147C500 153.04 502.983 160.036 507.474 164.526C519.151 176.204 538.261 173.619 546.728 159.216C549.092 155.194 549.5 153.396 549.5 147C549.5 140.604 549.092 138.806 546.728 134.784C540.389 124 527.976 119.517 516.086 123.717ZM695.534 138.254C692.936 138.94 689.785 141.085 686.396 144.474C679.88 150.99 677.96 157.498 680.021 166.089C681.838 173.661 689.339 181.162 696.911 182.979C705.501 185.039 712.01 183.12 718.525 176.606C725.084 170.046 726.959 163.865 725.019 155.196C724.002 150.649 722.849 148.718 718.635 144.504C711.695 137.564 705.003 135.754 695.534 138.254ZM153 155.539C137.094 159.969 126.553 173.903 126.553 190.5C126.553 207.773 137.394 221.462 154.398 225.658C166.443 228.631 179.061 225.024 188.043 216.043C197.024 207.061 200.631 194.443 197.658 182.398C192.674 162.2 172.548 150.096 153 155.539ZM392.5 161.271C387.997 163.79 384 170.481 384 175.5C384 183.858 392.126 191.967 400.5 191.967C408.874 191.967 417 183.858 417 175.5C417 167.142 408.874 159.033 400.5 159.033C398.217 159.033 394.783 159.993 392.5 161.271ZM567.353 164.061C559.426 166.573 552.1 173.025 548.346 180.798C546.045 185.561 545.592 187.817 545.592 194.5C545.592 204.658 548.728 211.772 556.147 218.442C561.45 223.21 570.906 227 577.5 227C584.094 227 593.55 223.21 598.853 218.442C606.272 211.772 609.408 204.658 609.408 194.5C609.408 187.817 608.955 185.561 606.654 180.798C602.803 172.824 595.595 166.573 587.298 164.01C579.301 161.54 575.273 161.55 567.353 164.061ZM50.703 172.383C43.992 174.882 39.576 178.528 36.5 184.108C30.106 195.708 33.783 209.921 44.925 216.676C47.806 218.423 51.927 220.15 54.082 220.514C63.58 222.119 74.412 216.898 79.151 208.431C84.249 199.323 83.952 191.042 78.202 181.985C72.897 173.629 59.715 169.026 50.703 172.383ZM323.803 189.344C306.54 194.194 297.599 213.001 304.808 229.3C311.448 244.309 329.483 250.891 344.217 243.682C361.767 235.096 366.108 212.582 353.076 197.739C346.552 190.308 333.597 186.593 323.803 189.344ZM433.384 198.412C422.814 200.977 413.989 208.441 409.183 218.88C407.041 223.532 406.593 225.981 406.583 233.094C406.573 240.762 406.918 242.39 409.786 248.216C413.616 255.997 419.947 262.165 427.825 265.792C435.958 269.536 448.042 269.536 456.175 265.792C464.053 262.165 470.384 255.997 474.214 248.216C477.082 242.39 477.427 240.762 477.417 233.094C477.407 225.981 476.959 223.532 474.817 218.88C469.91 208.222 461.175 200.956 450.147 198.36C443.362 196.763 440.135 196.773 433.384 198.412ZM943.5 207.338C936.865 209.537 933.658 211.589 928.886 216.691C922.996 222.988 920.5 229.478 920.5 238.5C920.5 247.669 923.033 254.097 929.225 260.645C936.004 267.812 942.265 270.449 952.5 270.449C962.735 270.449 968.996 267.812 975.775 260.645C981.967 254.097 984.5 247.669 984.5 238.5C984.5 233.984 983.816 229.727 982.573 226.503C980.005 219.845 972.26 211.791 965.702 208.958C959.393 206.234 949.1 205.483 943.5 207.338ZM239.263 222.514C219.507 226.806 203.129 244.4 199.851 264.852C194.5 298.243 224.757 328.5 258.148 323.149C285.895 318.702 305.516 292.101 301.149 264.852C297.831 244.152 281.454 226.746 261.27 222.469C253.028 220.723 247.456 220.734 239.263 222.514ZM629.045 237.092C617.693 239.318 605.813 248.526 600.645 259.106C588.373 284.227 603.582 313.592 631.236 318.175C658.259 322.653 682.653 298.259 678.175 271.236C674.288 247.78 652.339 232.526 629.045 237.092ZM840.207 239.992C836.81 241.534 835.486 242.908 833.865 246.573C830.325 254.574 833.494 262.496 841.448 265.533C845.393 267.04 846.661 267.118 850.155 266.072C855.366 264.511 858.517 261.343 860.093 256.085C861.183 252.446 861.098 251.335 859.412 247.212C857.871 243.447 856.589 242.048 853.03 240.25C847.618 237.516 845.746 237.479 840.207 239.992ZM752.5 243.411C736.072 247.488 723.991 260.464 720.875 277.378C715.876 304.504 741.496 330.124 768.622 325.125C786.598 321.813 799.813 308.598 803.125 290.622C808.36 262.212 780.696 236.413 752.5 243.411ZM88.534 262.254C85.936 262.94 82.785 265.085 79.396 268.474C72.88 274.99 70.96 281.498 73.021 290.089C74.838 297.661 82.339 305.162 89.911 306.979C98.501 309.039 105.01 307.12 111.525 300.606C118.084 294.046 119.959 287.865 118.019 279.196C117.002 274.649 115.849 272.718 111.635 268.504C104.695 261.564 98.003 259.754 88.534 262.254ZM389.5 269.128C380.049 271.317 371.054 280.826 368.92 290.883C363.729 315.341 392.14 334.026 412.505 319.547C428.798 307.963 428.59 284.349 412.098 273.193C405.17 268.507 397.858 267.191 389.5 269.128ZM525.481 271.394C521.26 273.233 516.223 279.293 515.438 283.479C514.31 289.494 515.794 294.058 520.368 298.632C524.986 303.249 529.507 304.69 535.718 303.525C540.743 302.582 547.582 295.743 548.525 290.718C549.56 285.199 548.29 280.4 544.716 276.33C539.462 270.345 532.177 268.476 525.481 271.394ZM878.411 281.484C853.011 287.011 835.659 312.369 839.945 337.699C843.613 359.373 860.266 375.775 882 379.119C914.238 384.079 943.079 355.238 938.119 323C934.907 302.124 919.564 285.771 899.122 281.438C891.086 279.735 886.402 279.745 878.411 281.484ZM975.015 309.706C959.933 317.633 959.021 338.554 973.372 347.426C987.702 356.286 1005.6 347.043 1006.78 330.173C1007.61 318.262 998.471 308.08 986.173 307.22C981.394 306.886 979.636 307.278 975.015 309.706ZM508 316.53C481.445 323.893 469.994 354.532 485.212 377.507C492.349 388.282 504.166 394.353 518 394.353C535.747 394.353 549.939 384.296 555.683 367.649C559.451 356.729 557.483 342.602 550.788 332.493C542.043 319.291 523.284 312.292 508 316.53ZM696.64 324.632C687.238 327.52 679 338.9 679 349C679 362.305 691.695 375 705 375C718.305 375 731 362.305 731 349C731 342.847 727.895 335.799 723.048 330.952C715.702 323.607 706.864 321.492 696.64 324.632ZM306.218 344.606C293.099 351.299 296.778 371.094 311.45 372.747C322.923 374.04 331.448 362.067 326.491 351.622C323.022 344.312 313.354 340.966 306.218 344.606ZM412.355 348.983C401.517 351.275 391.646 359.34 386.632 370C383.971 375.656 383.574 377.604 383.574 385C383.574 392.396 383.971 394.344 386.632 400C390.518 408.262 396.738 414.482 405 418.368C410.656 421.029 412.604 421.426 420 421.426C427.396 421.426 429.344 421.029 435 418.368C443.244 414.491 449.466 408.279 453.399 400C456.114 394.284 456.482 392.473 456.449 384.989C456.417 377.631 455.999 375.599 453.362 369.989C447.564 357.657 436.091 349.572 423 348.593C419.425 348.326 414.635 348.501 412.355 348.983ZM48.67 358.623C39.789 361.352 32 372.041 32 381.5C32 386.921 35.24 394.292 39.49 398.542C53.291 412.343 76.127 405.261 80.165 385.927C82.611 374.213 75.331 361.957 63.911 358.566C57.545 356.676 54.978 356.685 48.67 358.623ZM233.207 363.992C229.81 365.534 228.486 366.908 226.865 370.573C223.325 378.574 226.494 386.496 234.448 389.533C238.393 391.04 239.661 391.118 243.155 390.072C248.366 388.511 251.517 385.343 253.093 380.085C254.183 376.446 254.098 375.335 252.412 371.212C250.871 367.447 249.589 366.048 246.03 364.25C240.618 361.516 238.746 361.479 233.207 363.992ZM145.5 367.411C129.072 371.488 116.991 384.464 113.875 401.378C108.876 428.504 134.496 454.124 161.622 449.125C179.598 445.813 192.813 432.598 196.125 414.622C201.36 386.212 173.696 360.413 145.5 367.411ZM636.5 370.88C614.478 376.694 606.912 404.352 623.161 419.642C629.128 425.258 634.598 427.395 643 427.395C651.402 427.395 656.872 425.258 662.839 419.642C668.68 414.146 671.391 407.603 671.391 399C671.391 390.397 668.68 383.854 662.839 378.358C656.068 371.986 644.62 368.736 636.5 370.88ZM990 377.628C972.098 381.073 958.819 392.184 952.804 408.751C951.238 413.065 950.717 416.871 950.717 424C950.717 431.129 951.238 434.935 952.804 439.249C959.832 458.605 976.597 470.433 997 470.429C1006 470.427 1010.26 469.413 1018.75 465.248L1024 462.673L1023.99 424.086L1023.99 385.5L1020.74 383.63C1012.74 379.017 997.87 376.114 990 377.628ZM769.803 380.344C752.54 385.194 743.599 404.001 750.808 420.3C757.448 435.309 775.483 441.891 790.217 434.682C807.767 426.096 812.108 403.582 799.076 388.739C792.552 381.308 779.597 377.593 769.803 380.344ZM271.411 405.484C246.011 411.011 228.659 436.369 232.945 461.699C236.613 483.373 253.266 499.775 275 503.119C307.238 508.079 336.079 479.238 331.119 447C327.907 426.124 312.564 409.771 292.122 405.438C284.086 403.735 279.402 403.745 271.411 405.484ZM886.5 410.504C878.63 413.289 872.011 422.881 872.011 431.5C872.011 443.441 882.559 453.989 894.5 453.989C903.486 453.989 913.627 446.642 915.882 438.5C918.387 429.451 916.571 422.297 910.137 415.863C903.492 409.218 895.349 407.372 886.5 410.504ZM517.5 430.411C501.072 434.488 488.991 447.464 485.875 464.378C480.876 491.504 506.496 517.124 533.622 512.125C551.598 508.813 564.813 495.598 568.125 477.622C573.36 449.212 545.696 423.413 517.5 430.411ZM856.108 460.082C833.394 464.542 817.041 487.926 820.794 510.578C824.045 530.195 838.805 544.955 858.422 548.206C887.338 552.997 913.997 526.338 909.206 497.422C904.983 471.942 881.131 455.168 856.108 460.082ZM644.107 465.504C641.691 466.257 637.959 468.587 635.814 470.682C627.429 478.87 627.179 491.9 635.24 500.645C650.17 516.842 676.84 502.739 672.019 481.196C670.362 473.788 664.696 467.581 657.692 465.501C651.651 463.707 649.867 463.708 644.107 465.504ZM200.108 484.082C177.394 488.542 161.041 511.926 164.794 534.578C168.045 554.195 182.805 568.955 202.422 572.206C231.338 576.997 257.997 550.338 253.206 521.422C248.983 495.942 225.131 479.168 200.108 484.082ZM726.929 493.305C716.554 496.244 708.77 502.951 704.129 512.954C702.053 517.43 701.551 520.047 701.528 526.521C701.503 533.586 701.889 535.331 704.76 541.163C708.562 548.886 713.997 554.18 721.88 557.837C726.458 559.96 728.983 560.444 735.5 560.444C742.017 560.444 744.542 559.96 749.12 557.837C757.003 554.18 762.438 548.886 766.24 541.163C769.111 535.331 769.497 533.586 769.472 526.521C769.439 517.151 766.691 509.985 760.507 503.14C752.801 494.61 737.819 490.222 726.929 493.305ZM383 501.628C365.098 505.073 351.819 516.184 345.804 532.751C342.888 540.783 342.888 555.217 345.804 563.249C352.831 582.604 369.594 594.43 390 594.43C416.306 594.43 436.077 574.841 436.356 548.5C436.576 527.657 424.676 510.6 405.249 503.913C399.498 501.933 387.707 500.722 383 501.628ZM577.108 516.082C554.394 520.542 538.041 543.926 541.794 566.578C545.045 586.195 559.805 600.955 579.422 604.206C608.338 608.997 634.997 582.338 630.206 553.422C625.983 527.942 602.131 511.168 577.108 516.082ZM70.929 517.305C60.554 520.244 52.77 526.951 48.129 536.954C46.053 541.43 45.551 544.047 45.528 550.521C45.503 557.586 45.889 559.331 48.76 565.163C52.562 572.886 57.997 578.18 65.88 581.837C70.458 583.96 72.983 584.444 79.5 584.444C86.017 584.444 88.542 583.96 93.12 581.837C101.003 578.18 106.438 572.886 110.24 565.163C113.111 559.331 113.497 557.586 113.472 550.521C113.439 541.151 110.691 533.985 104.507 527.14C96.801 518.61 81.819 514.222 70.929 517.305ZM994 537.601C977.17 542.098 965.717 559.623 968.795 576.171C971.75 592.061 981.939 602.25 997.829 605.205C1002.81 606.131 1005.01 606.039 1010.54 604.674C1014.22 603.766 1018.75 602.082 1020.61 600.93L1024 598.837V571V543.163L1020.69 541.119C1016.83 538.733 1006.91 535.971 1002.54 536.066C1000.87 536.102 997.025 536.793 994 537.601ZM457 593.539C441.094 597.969 430.553 611.903 430.553 628.5C430.553 645.773 441.394 659.462 458.398 663.658C470.443 666.631 483.061 663.024 492.043 654.043C501.024 645.061 504.631 632.443 501.658 620.398C496.674 600.2 476.548 588.096 457 593.539ZM871.353 602.061C863.426 604.573 856.1 611.025 852.346 618.798C850.045 623.561 849.592 625.817 849.592 632.5C849.592 642.658 852.728 649.772 860.147 656.442C865.45 661.21 874.906 665 881.5 665C888.094 665 897.55 661.21 902.853 656.442C910.272 649.772 913.408 642.658 913.408 632.5C913.408 625.817 912.955 623.561 910.654 618.798C906.803 610.824 899.595 604.573 891.298 602.01C883.301 599.54 879.273 599.55 871.353 602.061ZM215.353 626.061C207.426 628.573 200.1 635.025 196.346 642.798C194.045 647.561 193.592 649.817 193.592 656.5C193.592 666.658 196.728 673.772 204.147 680.442C209.45 685.21 218.906 689 225.5 689C232.094 689 241.55 685.21 246.853 680.442C254.272 673.772 257.408 666.658 257.408 656.5C257.408 649.817 256.955 647.561 254.654 642.798C250.803 634.824 243.595 628.573 235.298 626.01C227.301 623.54 223.273 623.55 215.353 626.061ZM627.803 627.344C601.873 634.628 598.618 669.86 622.783 681.682C634.092 687.215 649.037 684.417 657.076 675.261C667.13 663.81 667.13 647.19 657.076 635.739C650.552 628.308 637.597 624.593 627.803 627.344ZM737.384 636.412C726.814 638.977 717.989 646.441 713.183 656.88C711.041 661.532 710.593 663.981 710.583 671.094C710.573 678.762 710.918 680.39 713.786 686.216C717.616 693.997 723.947 700.165 731.825 703.792C739.958 707.536 752.042 707.536 760.175 703.792C768.053 700.165 774.384 693.997 778.214 686.216C781.082 680.39 781.427 678.762 781.417 671.094C781.407 663.981 780.959 661.532 778.817 656.88C773.91 646.222 765.175 638.956 754.147 636.36C747.362 634.763 744.135 634.773 737.384 636.412ZM0 679.5C0 702.613 0.282 703.235 5.727 692.147C9.64 684.179 9.64 674.821 5.727 666.853C0.282 655.765 0 656.387 0 679.5ZM81.384 660.412C70.814 662.977 61.989 670.441 57.183 680.88C55.041 685.532 54.593 687.981 54.583 695.094C54.573 702.762 54.918 704.39 57.786 710.216C61.616 717.997 67.947 724.165 75.825 727.792C83.958 731.536 96.042 731.536 104.175 727.792C112.053 724.165 118.384 717.997 122.214 710.216C125.082 704.39 125.427 702.762 125.417 695.094C125.407 687.981 124.959 685.532 122.817 680.88C117.91 670.222 109.175 662.956 98.147 660.36C91.362 658.763 88.135 658.773 81.384 660.412ZM543.263 660.514C523.507 664.806 507.129 682.4 503.851 702.852C499.46 730.253 519.257 756.915 547.148 761.162C574.574 765.338 600.927 745.665 605.162 717.852C609.129 691.8 591.163 665.956 565.27 660.469C557.028 658.723 551.456 658.734 543.263 660.514ZM933.045 675.092C921.693 677.318 909.813 686.526 904.645 697.106C892.373 722.227 907.582 751.592 935.236 756.175C962.259 760.653 986.653 736.259 982.175 709.236C978.288 685.78 956.339 670.526 933.045 675.092ZM277.045 699.092C265.693 701.318 253.813 710.526 248.645 721.106C236.373 746.227 251.582 775.592 279.236 780.175C306.259 784.653 330.653 760.259 326.175 733.236C322.288 709.78 300.339 694.526 277.045 699.092ZM392.534 700.254C389.936 700.94 386.785 703.085 383.396 706.474C376.88 712.99 374.96 719.498 377.021 728.089C378.838 735.661 386.339 743.162 393.911 744.979C402.501 747.039 409.01 745.12 415.525 738.606C422.084 732.046 423.959 725.865 422.019 717.196C421.002 712.649 419.849 710.718 415.635 706.504C408.695 699.564 402.003 697.754 392.534 700.254ZM693.5 707.128C684.049 709.317 675.054 718.826 672.92 728.883C667.729 753.341 696.14 772.026 716.505 757.547C732.798 745.963 732.59 722.349 716.098 711.193C709.17 706.507 701.858 705.191 693.5 707.128ZM37.5 731.128C28.049 733.317 19.054 742.826 16.92 752.883C11.729 777.341 40.14 796.026 60.505 781.547C76.798 769.963 76.59 746.349 60.098 735.193C53.17 730.507 45.858 729.191 37.5 731.128ZM812 754.53C785.445 761.893 773.994 792.532 789.212 815.507C796.349 826.282 808.166 832.353 822 832.353C839.747 832.353 853.939 822.296 859.683 805.649C863.451 794.729 861.483 780.602 854.788 770.493C846.043 757.291 827.284 750.292 812 754.53ZM156 778.53C129.445 785.893 117.994 816.532 133.212 839.507C140.349 850.282 152.166 856.353 166 856.353C183.747 856.353 197.939 846.296 203.683 829.649C207.451 818.729 205.483 804.602 198.788 794.493C190.043 781.291 171.284 774.292 156 778.53ZM716.355 786.983C705.517 789.275 695.646 797.34 690.632 808C687.971 813.656 687.574 815.604 687.574 823C687.574 830.396 687.971 832.344 690.632 838C694.518 846.262 700.738 852.482 709 856.368C714.656 859.029 716.604 859.426 724 859.426C731.396 859.426 733.344 859.029 739 856.368C747.244 852.491 753.466 846.279 757.399 838C760.114 832.284 760.482 830.473 760.449 822.989C760.417 815.631 759.999 813.599 757.362 807.989C751.564 795.657 740.091 787.572 727 786.593C723.425 786.326 718.635 786.501 716.355 786.983ZM537.207 801.992C533.81 803.534 532.486 804.908 530.865 808.573C527.325 816.574 530.494 824.496 538.448 827.533C542.393 829.04 543.661 829.118 547.155 828.072C552.366 826.511 555.517 823.343 557.093 818.085C558.183 814.446 558.098 813.335 556.412 809.212C554.871 805.447 553.589 804.048 550.03 802.25C544.618 799.516 542.746 799.479 537.207 801.992ZM449.5 805.411C433.072 809.488 420.991 822.464 417.875 839.378C412.876 866.504 438.496 892.124 465.622 887.125C483.598 883.813 496.813 870.598 500.125 852.622C505.36 824.212 477.696 798.413 449.5 805.411ZM60.355 810.983C49.517 813.275 39.646 821.34 34.632 832C31.971 837.656 31.574 839.604 31.574 847C31.574 854.396 31.971 856.344 34.632 862C38.518 870.262 44.738 876.482 53 880.368C58.656 883.029 60.604 883.426 68 883.426C75.396 883.426 77.344 883.029 83 880.368C91.244 876.491 97.466 870.279 101.399 862C104.114 856.284 104.482 854.473 104.449 846.989C104.417 839.631 103.999 837.599 101.362 831.989C95.564 819.657 84.091 811.572 71 810.593C67.425 810.326 62.635 810.501 60.355 810.983ZM575.411 843.484C550.011 849.011 532.659 874.369 536.945 899.699C540.613 921.373 557.266 937.775 579 941.119C605.396 945.18 630.497 926.632 635.055 899.699C639.382 874.126 621.932 848.909 596.122 843.438C588.086 841.735 583.402 841.745 575.411 843.484ZM821.5 868.411C805.072 872.488 792.991 885.464 789.875 902.378C784.876 929.504 810.496 955.124 837.622 950.125C855.598 946.813 868.813 933.598 872.125 915.622C877.36 887.212 849.696 861.413 821.5 868.411ZM165.5 892.411C149.072 896.488 136.991 909.464 133.875 926.378C128.876 953.504 154.496 979.124 181.622 974.125C199.598 970.813 212.813 957.598 216.125 939.622C221.36 911.212 193.696 885.413 165.5 892.411ZM687 939.628C669.098 943.073 655.819 954.184 649.804 970.751C648.238 975.065 647.717 978.871 647.717 986C647.717 993.129 648.238 996.935 649.804 1001.25C652.505 1008.69 658.173 1017.18 662.981 1020.98L666.788 1024H694H721.212L725.019 1020.98C734.281 1013.65 740.21 1000.32 740.356 986.5C740.576 965.657 728.676 948.6 709.249 941.913C703.498 939.933 691.707 938.722 687 939.628ZM29.5 963.976C18.99 966.296 8.452 972.202 2.984 978.836L0 982.456V1003.23V1024H41.455H82.909L83.705 1020.25C84.142 1018.19 84.471 1013.12 84.436 1009C84.229 984.495 65.408 965.009 40.5 963.513C36.65 963.282 31.7 963.49 29.5 963.976Z" fill="black" fill-opacity="0.15"/>
</svg>
